<svg xmlns="http://www.w3.org/2000/svg" viewBox="0 0 710.71 119.45"><defs><style>.cls-1{fill:#3483d6;}</style></defs><title>Asset 7</title><g id="Layer_2" data-name="Layer 2"><g id="OBJECTS"><path class="cls-1" d="M43.53,71.27c9.63,0,15.45-6.64,17.61-15.61l20.1,9c-4,14.29-17.61,26.25-37.88,26.25C17.94,90.88,0,72.44,0,45.36,0,18.44,17.94,0,43.36,0c20.1,0,33.4,11.63,37.55,25.75l-19.77,9.3c-2.16-9-8-15.61-17.61-15.61-12.3,0-20.44,9.63-20.44,25.92S31.23,71.27,43.53,71.27Z"/><path class="cls-1" d="M144.54,24.26a53.59,53.59,0,0,0-7.48-.5c-12.13,0-21.43,7.47-21.43,20.93V89.05H92.37V1.66h23.26V14c3.82-7.65,12.46-12.8,23.26-12.8a50.84,50.84,0,0,1,5.65.34Z"/><path class="cls-1" d="M168.29,119.45a65.38,65.38,0,0,1-9.14-.5V100.18c2.49.17,4,.33,6.65.33,6.14,0,9.47-1.66,12-8l2.82-7-31.4-83.9h24.09L193,59.14,212.32,1.66h23.42L201.18,94C195.54,109.48,187.56,119.45,168.29,119.45Z"/><path class="cls-1" d="M268.8,80.08v38.54H245.54V1.66H268.8v9C274,4.32,282.26,0,293.22,0c24.09,0,38,20.6,38,45.36,0,24.92-14,45.52-38,45.52C282.26,90.88,274,86.56,268.8,80.08Zm-.5-32.23c0,14.78,8.31,23.09,19.44,23.09,13.12,0,20.1-10.47,20.1-25.58s-7-25.42-20.1-25.42c-11.13,0-19.44,8.14-19.44,23.09Z"/><path class="cls-1" d="M404.36,1.66l14.46,54.66L433.44,1.66H456.2L429.78,89.05h-20.1L394.89,36.22,380.11,89.05H360L333.59,1.66h23.59L372,56.32,386.25,1.66Z"/><path class="cls-1" d="M456.86,64.79c0-17.44,13.95-24.75,31.56-27.91l21.77-4.15V31.4c0-7.48-3.82-12.13-13.46-12.13-8.64,0-13.12,3.82-15.12,11.63l-22.09-4.15C463.5,12,476.79,0,497.56,0,519.66,0,533,10.13,533,30.4V66.12c0,4.65,2,6.15,7.14,5.49V89.05c-14.78,2.16-23.75-.83-27.58-8.14-5.64,6.15-14.45,9.63-25.91,9.63C469.48,90.54,456.86,80.24,456.86,64.79ZM510.19,49,493.08,52.5c-7.65,1.49-13.29,4-13.29,11,0,6,4.48,9.47,11.46,9.47,9.8,0,18.94-5.15,18.94-15Z"/><path class="cls-1" d="M571.49,89.05,539.76,1.66h24.09l19.6,59.15L602.89,1.66h23.43L594.75,89.05Z"/><path class="cls-1" d="M628.31,45.36C628.31,19.6,646.08,0,670.84,0c25.92,0,39.87,19.27,39.87,43.69v6.82H650.57c1.66,13.29,9.8,21.26,21.27,21.26,9,0,16.11-4.32,18.77-12.79l19.6,7c-6.31,16-21.1,24.92-38.54,24.92C645.92,90.88,628.31,72.44,628.31,45.36ZM651.4,34.72h36.22c-.17-8.64-5.65-16.11-17-16.11C661.37,18.61,654.23,24.09,651.4,34.72Z"/></g></g></svg>