<svg width="50" height="45" viewBox="0 0 50 45" fill="none" xmlns="http://www.w3.org/2000/svg">
<path fill-rule="evenodd" clip-rule="evenodd" d="M1.24954 16.8472C2.20925 15.1656 2.89544 13.3118 3.54728 11.478C4.18669 9.6784 5.27902 8.39333 6.82723 7.25105C9.33396 5.40192 11.9159 3.79824 14.7364 2.42466C16.9459 1.34964 19.2437 1.09357 21.5077 0.638667C24.4105 0.0569047 27.4116 0.0197333 30.3884 0.000852588C31.7217 -0.00740773 32.9513 0.223881 34.1911 0.772012C35.2515 1.24108 36.4474 1.5591 37.6031 1.63108C40.4591 1.80927 42.4881 3.19877 44.102 5.4444C45.691 7.65521 47.289 9.86898 49.0385 11.9512C49.8958 12.9713 50.0402 14.0275 49.9917 15.2128C49.9277 16.7663 49.7152 18.3234 49.7785 19.8699C49.8715 22.132 49.1302 24.2325 48.5382 26.3188C47.9503 28.391 47.7153 30.7103 45.9409 32.3069C46.0551 34.6399 44.25 35.591 42.7515 36.8047C41.9475 37.4555 41.3004 38.2957 40.5692 39.0379C38.8931 40.7395 36.8902 41.8694 34.5594 42.4164C32.5517 42.8872 30.9775 44.472 28.807 44.5653C26.7266 44.6555 24.6538 44.911 22.5739 44.9977C21.9558 45.0237 21.2572 44.8461 20.7108 44.5499C19.4136 43.846 18.0661 43.4708 16.5948 43.3929C14.2551 43.2696 12.7406 41.349 10.6773 40.5914C10.0853 40.3743 9.61045 39.8527 9.05984 39.5058C7.85621 38.7494 6.2855 38.2721 5.50815 37.2118C4.3128 35.5816 3.64083 33.5655 2.78591 31.6945C2.57277 31.2284 2.65625 30.5676 2.35075 30.2141C1.26731 28.9639 1.05772 27.3708 0.620789 25.9076C0.219381 24.5664 0.272073 23.0908 0.0370298 20.8239C-0.145913 19.9082 0.363248 18.3989 1.24954 16.8472Z" fill="#477DBB"/>
</svg>
