<svg width="156" height="123" viewBox="0 0 156 123" fill="none" xmlns="http://www.w3.org/2000/svg">
<path fill-rule="evenodd" clip-rule="evenodd" d="M0.0999805 56.9175C-0.393965 54.4145 0.98077 50.2891 3.37377 46.0476C5.96499 41.4513 7.81768 36.384 9.57766 31.3716C11.3041 26.4528 14.2534 22.9402 18.4335 19.818C25.2017 14.7636 32.1729 10.3802 39.7883 6.62573C45.754 3.68731 51.9579 2.98738 58.0707 1.74396C65.9083 0.153793 74.0112 0.0521906 82.0486 0.000582846C85.6485 -0.0219955 88.9686 0.610199 92.316 2.10844C95.1789 3.39057 98.408 4.25984 101.528 4.45659C109.24 4.94364 114.718 8.74165 119.075 14.8797C123.366 20.9227 127.68 26.9737 132.404 32.6651C134.719 35.4535 135.109 38.3403 134.978 41.5803C134.805 45.8267 134.231 50.0827 134.402 54.3097C134.653 60.4929 132.652 66.2343 131.053 71.937C129.466 77.6009 128.831 83.9406 124.04 88.3047C124.349 94.6815 119.475 97.2812 115.429 100.599C113.258 102.377 111.511 104.674 109.537 106.703C105.011 111.354 99.6037 114.442 93.3102 115.937C87.8896 117.224 83.6391 121.556 77.7789 121.811C72.1617 122.058 66.5652 122.756 60.9496 122.993C59.2808 123.064 57.3945 122.579 55.919 121.769C52.4167 119.845 48.7784 118.819 44.8061 118.606C38.4887 118.269 34.3996 113.02 28.8288 110.949C27.2302 110.356 25.9482 108.93 24.4616 107.982C21.2118 105.914 16.9709 104.609 14.872 101.711C11.6446 97.2554 9.83023 91.7447 7.52195 86.6307C6.94648 85.3566 7.17188 83.5503 6.34703 82.5843C3.42173 79.1669 2.85585 74.8125 1.67613 70.8129C0.592328 67.1471 0.734597 63.1136 0.0999805 56.9175Z" fill="#309255"/>
<path fill-rule="evenodd" clip-rule="evenodd" d="M113.21 49.2399C112.467 48.9166 111.653 47.7993 110.999 46.389C110.289 44.8613 109.319 43.4451 108.347 42.0636C107.392 40.7081 107.031 39.2819 107.001 37.5981C106.954 34.8719 107.118 32.2135 107.567 29.4975C107.919 27.3703 108.897 25.5867 109.717 23.7286C110.769 21.3469 112.257 19.1651 113.746 17.0098C114.414 16.0446 115.198 15.2732 116.213 14.652C117.082 14.1208 117.911 13.4168 118.545 12.6195C120.113 10.6493 122.124 9.87741 124.533 9.83032C126.905 9.78384 129.283 9.73243 131.644 9.50636C132.801 9.39551 133.624 9.81638 134.441 10.4406C135.511 11.259 136.509 12.1862 137.639 12.9093C139.292 13.9668 140.409 15.5453 141.592 17.0092C142.766 18.4631 144.294 19.7855 144.532 21.8582C146.246 22.9356 146.01 24.7096 146.115 26.3931C146.171 27.2962 146.441 28.1803 146.599 29.0764C146.961 31.1305 146.752 33.136 145.964 35.0881C145.285 36.7693 145.616 38.692 144.586 40.3029C143.6 41.8475 142.735 43.4686 141.747 45.011C141.454 45.4695 140.975 45.8848 140.489 46.1315C139.334 46.7166 138.388 47.5015 137.59 48.5233C136.321 50.1486 134.193 50.2856 132.614 51.3964C132.161 51.7152 131.551 51.7982 131.027 52.0226C129.882 52.5143 128.751 53.4092 127.606 53.4425C125.845 53.4938 124.074 52.976 122.315 52.6622C121.876 52.5841 121.449 52.1955 121.044 52.24C119.61 52.3995 118.373 51.7586 117.113 51.3462C115.959 50.9689 114.938 50.1974 113.21 49.2399Z" fill="#FFCD2F"/>
</svg>
