<svg width="95" height="15" viewBox="0 0 95 15" fill="none" xmlns="http://www.w3.org/2000/svg">
<path fill-rule="evenodd" clip-rule="evenodd" d="M87.5 11.5679L83.0916 13.5676L83.6312 8.75704L80.3671 5.18237L85.109 4.20902L87.5 0L89.891 4.20902L94.6329 5.18237L91.3688 8.75704L91.9084 13.5676L87.5 11.5679Z" fill="#FFD36F"/>
<path fill-rule="evenodd" clip-rule="evenodd" d="M67.5 11.5679L63.0916 13.5676L63.6312 8.75704L60.3671 5.18237L65.109 4.20902L67.5 0L69.891 4.20902L74.6329 5.18237L71.3688 8.75704L71.9084 13.5676L67.5 11.5679Z" fill="#FFD36F"/>
<path fill-rule="evenodd" clip-rule="evenodd" d="M47.5 11.5679L43.0916 13.5676L43.6312 8.75704L40.3671 5.18237L45.109 4.20902L47.5 0L49.891 4.20902L54.6329 5.18237L51.3688 8.75704L51.9084 13.5676L47.5 11.5679Z" fill="#FFD36F"/>
<path fill-rule="evenodd" clip-rule="evenodd" d="M27.5 11.5679L23.0916 13.5676L23.6312 8.75704L20.3671 5.18237L25.109 4.20902L27.5 0L29.891 4.20902L34.6329 5.18237L31.3688 8.75704L31.9084 13.5676L27.5 11.5679Z" fill="#FFD36F"/>
<path fill-rule="evenodd" clip-rule="evenodd" d="M7.5 11.5679L3.09161 13.5676L3.63122 8.75704L0.367076 5.18237L5.10896 4.20902L7.5 0L9.89104 4.20902L14.6329 5.18237L11.3688 8.75704L11.9084 13.5676L7.5 11.5679Z" fill="#FFD36F"/>
</svg>
