<svg xmlns="http://www.w3.org/2000/svg" viewBox="0 0 164 24" fill="none" id="icon-binance-pay" class="css-mykl4n"><path d="M5.44954 12.0149L2.72477 14.7212L0 12.0149L2.72477 9.30855L5.44954 12.0149ZM12.0968 5.41264L16.7678 10.0818L19.4926 7.37546L14.8216 2.70632L12.0968 0L9.37202 2.70632L4.67104 7.37546L7.39581 10.0818L12.0968 5.41264ZM21.4688 9.30855L18.744 12.0149L21.4688 14.7212L24.1936 12.0149L21.4688 9.30855ZM12.0968 18.5874L7.42575 13.948L4.67104 16.6543L9.34208 21.2937L12.0668 24L14.7916 21.2937L19.4926 16.6543L16.7678 13.948L12.0968 18.5874ZM12.0968 14.7212L14.8216 12.0149L12.0968 9.30855L9.37202 12.0149L12.0968 14.7212ZM40.9315 14.9888V14.9591C40.9315 13.2045 39.9733 12.3123 38.4462 11.7175C39.4044 11.1822 40.1829 10.3494 40.1829 8.86245V8.83271C40.1829 6.75093 38.5061 5.41264 35.8113 5.41264H29.6431V18.5874H35.961C38.9553 18.5874 40.9315 17.3978 40.9315 14.9888ZM37.2785 9.36803C37.2785 10.3494 36.47 10.7658 35.1825 10.7658H32.4877V7.97026H35.3622C36.5898 7.97026 37.2785 8.4461 37.2785 9.33829V9.36803ZM38.027 14.632C38.027 15.6134 37.2485 16.0595 35.961 16.0595H32.4877V13.1747H35.8712C37.3683 13.1747 38.027 13.71 38.027 14.6022V14.632ZM47.0398 18.5874V5.41264H44.1353V18.5874H47.0398ZM62.7297 18.5874V5.41264H59.8552V13.5316L53.6271 5.41264H50.9323V18.5874H53.8068V10.2305L60.2444 18.6171H62.7297V18.5874ZM78.8986 18.5874L73.2095 5.32342H70.5147L64.8256 18.5874H67.7899L69.0176 15.6431H74.6168L75.8445 18.5874H78.8986ZM73.5988 13.0855H70.0656L71.8322 8.80297L73.5988 13.0855ZM92.792 18.5874V5.41264H89.9175V13.5316L83.6894 5.41264H80.9946V18.5874H83.8691V10.2305L90.3067 18.6171H92.792V18.5874ZM107.883 16.4758L106.027 14.6022C104.979 15.5539 104.05 16.1487 102.553 16.1487C100.278 16.1487 98.7206 14.2751 98.7206 12.0149V11.9851C98.7206 9.72491 100.338 7.88104 102.553 7.88104C103.871 7.88104 104.919 8.4461 105.937 9.36803L107.793 7.22677C106.566 6.00744 105.068 5.20446 102.553 5.20446C98.4811 5.20446 95.6365 8.26766 95.6365 12.0149V12.0446C95.6365 15.8216 98.5409 18.8253 102.433 18.8253C104.979 18.8253 106.506 17.9331 107.883 16.4758ZM120.309 18.5874V16H113.123V13.2342H119.381V10.6468H113.123V7.97026H120.219V5.3829H110.219V18.5576H120.309V18.5874Z" fill="#F0B90B"></path><path d="M138.8 9.83038C138.8 7.14691 136.868 5.42049 133.81 5.42049H128.633V18.5563H130.94V14.3341H133.548C136.437 14.3341 138.8 12.7953 138.8 9.83038ZM136.455 9.88667C136.455 11.2941 135.367 12.2511 133.623 12.2511H130.94V7.52222H133.623C135.349 7.52222 136.455 8.32914 136.455 9.88667Z" fill="#1E2026"></path><path d="M146.635 5.32666H144.497L138.719 18.5563H141.082L142.433 15.385H148.642L149.974 18.5563H152.413L146.635 5.32666ZM147.798 13.3395H143.277L145.528 8.08519L147.798 13.3395Z" fill="#1E2026"></path><path d="M158.785 13.3208L164 5.42049H161.355L157.641 11.2378L153.964 5.42049H151.244L156.459 13.3771V18.5563H158.785V13.3208Z" fill="#1E2026"></path></svg>