<svg width="683" height="134" viewBox="0 0 683 134" fill="none" xmlns="http://www.w3.org/2000/svg">
<path d="M190.673 111.593H207.154V79.3296H244.64V65.1706H207.154V48.3423H245.452V34.1834H190.673V111.593Z" fill="black"/>
<path d="M282.624 112.986C301.193 112.986 312.335 99.5235 312.335 83.5076C312.335 67.6078 301.193 54.1452 282.624 54.1452C264.171 54.1452 253.03 67.6078 253.03 83.5076C253.03 99.5235 264.171 112.986 282.624 112.986ZM282.624 99.8717C273.456 99.8717 268.349 92.328 268.349 83.5076C268.349 74.8033 273.456 67.2596 282.624 67.2596C291.793 67.2596 297.015 74.8033 297.015 83.5076C297.015 92.328 291.793 99.8717 282.624 99.8717Z" fill="black"/>
<path d="M323.27 111.593H338.009V74.5712C340.446 70.9734 346.945 68.3041 351.82 68.3041C353.445 68.3041 354.837 68.4202 355.882 68.6523V54.2612C348.918 54.2612 341.955 58.2072 338.009 63.1976V55.5379H323.27V111.593Z" fill="black"/>
<path d="M383.892 112.986C390.043 112.986 393.989 111.361 396.194 109.388L393.061 98.2469C392.248 99.0593 390.159 99.8717 387.954 99.8717C384.705 99.8717 382.848 97.2024 382.848 93.7206V68.4202H394.221V55.5379H382.848V40.2183H367.993V55.5379H358.708V68.4202H367.993V97.6666C367.993 107.647 373.563 112.986 383.892 112.986Z" fill="black"/>
<path d="M473.824 111.593H488.679V71.0895C488.679 59.5999 482.528 54.1452 472.199 54.1452C463.611 54.1452 456.183 59.2517 452.934 64.3582C450.845 57.9751 445.622 54.1452 437.382 54.1452C428.794 54.1452 421.366 59.4838 419.045 62.8495V55.5379H404.306V111.593H419.045V73.8749C421.25 70.7413 425.544 67.2596 430.651 67.2596C436.686 67.2596 439.007 70.9735 439.007 76.196V111.593H453.862V73.7588C455.951 70.7413 460.245 67.2596 465.468 67.2596C471.503 67.2596 473.824 70.9735 473.824 76.196V111.593Z" fill="black"/>
<path d="M536.792 111.593H551.532V75.3836C551.532 59.2517 539.81 54.1452 527.044 54.1452C518.223 54.1452 509.403 56.9305 502.555 62.9655L508.126 72.8304C512.885 68.4202 518.455 66.2151 524.49 66.2151C531.918 66.2151 536.792 69.9289 536.792 75.6157V83.3916C533.079 78.8653 526.463 76.5442 519.036 76.5442C510.099 76.5442 499.538 81.3025 499.538 94.417C499.538 106.951 510.099 112.986 519.036 112.986C526.347 112.986 532.962 110.317 536.792 105.791V111.593ZM536.792 98.1308C534.355 101.38 529.713 103.005 524.954 103.005C519.152 103.005 514.393 99.9877 514.393 94.7651C514.393 89.4265 519.152 86.293 524.954 86.293C529.713 86.293 534.355 87.9178 536.792 91.1674V98.1308Z" fill="black"/>
<path d="M584.952 112.986C591.103 112.986 595.049 111.361 597.255 109.388L594.121 98.2469C593.309 99.0593 591.22 99.8717 589.014 99.8717C585.765 99.8717 583.908 97.2024 583.908 93.7206V68.4202H595.282V55.5379H583.908V40.2183H569.053V55.5379H559.768V68.4202H569.053V97.6666C569.053 107.647 574.623 112.986 584.952 112.986Z" fill="black"/>
<path d="M612.677 47.2978C617.552 47.2978 621.498 43.3519 621.498 38.4775C621.498 33.6031 617.552 29.6571 612.677 29.6571C607.919 29.6571 603.857 33.6031 603.857 38.4775C603.857 43.3519 607.919 47.2978 612.677 47.2978ZM605.366 111.593H620.105V55.5379H605.366V111.593Z" fill="black"/>
<path d="M631.122 83.5076C631.122 100.8 643.541 112.986 660.833 112.986C672.323 112.986 679.286 107.996 683 102.773L673.367 93.8367C670.698 97.5505 666.636 99.8717 661.529 99.8717C652.593 99.8717 646.326 93.2564 646.326 83.5076C646.326 73.7588 652.593 67.2596 661.529 67.2596C666.636 67.2596 670.698 69.4647 673.367 73.2946L683 64.3582C679.286 59.1356 672.323 54.1452 660.833 54.1452C643.541 54.1452 631.122 66.3312 631.122 83.5076Z" fill="black"/>
<path fill-rule="evenodd" clip-rule="evenodd" d="M66.9561 0H100.434H133.912V33.5236H100.434H66.9561H33.478V67.0473V69.1968V100.376V100.571V133.899H0V100.571V100.376V69.1968V67.0473V33.5236V0H33.478H66.9561ZM100.435 100.384H67.1523V67.0562H133.894V101.557C133.894 110.134 130.493 118.359 124.438 124.426C118.384 130.492 110.171 133.903 101.606 133.908H100.435V100.384Z" fill="#6851FF"/>
</svg>
