<svg id="Layer_1" data-name="Layer 1" xmlns="http://www.w3.org/2000/svg" xmlns:xlink="http://www.w3.org/1999/xlink" viewBox="0 0 743 172.27"><defs><style>.cls-1{fill:url(#linear-gradient);}.cls-2{fill:url(#linear-gradient-2);}</style><linearGradient id="linear-gradient" x1="89.64" y1="463.14" x2="89.64" y2="290.86" gradientTransform="matrix(1, 0, 0, -1, -3.5, 463.14)" gradientUnits="userSpaceOnUse"><stop offset="0" stop-color="#534bb1"/><stop offset="1" stop-color="#551bf9"/></linearGradient><linearGradient id="linear-gradient-2" x1="91.47" y1="431.98" x2="91.47" y2="318.35" gradientTransform="matrix(1, 0, 0, -1, 0, 752)" gradientUnits="userSpaceOnUse"><stop offset="0" stop-color="#fff"/><stop offset="1" stop-color="#fff" stop-opacity="0.82"/></linearGradient></defs><title>phantomlogo-freelogovectors.net</title><path d="M254.28,372.46V346.6h13.89c8.79,0,14.14,5,14.14,13,0,7.77-5.35,12.87-14.14,12.87Zm16,15.16c17.84,0,29.69-11.72,29.69-28.16s-11.85-28.15-29.69-28.15H236.57v90.32h17.58v-34Z" transform="translate(-3.5 -288.86)"/><path d="M328.63,384.81c.38-6.87,4.59-12.22,11.72-12.22,8.15,0,11.59,5.47,11.59,12.48v36.56h16.95V382.14c0-13.76-7.39-24.84-23.32-24.84-6,0-12.86,2-16.94,6.88V329.4H311.69v92.23h16.94Z" transform="translate(-3.5 -288.86)"/><path d="M382.26,404.56c0,9.81,8.16,18.86,21.53,18.86,9.3,0,15.29-4.34,18.47-9.3a42.51,42.51,0,0,0,.64,7.51h15.54a70.43,70.43,0,0,1-.76-9.93V380.87c0-12.62-7.39-23.83-27.26-23.83-16.82,0-25.86,10.83-26.88,20.64l15,3.19c.51-5.48,4.58-10.2,12-10.2,7.14,0,10.58,3.7,10.58,8.16,0,2.16-1.15,3.95-4.72,4.46L401,385.58C390.54,387.11,382.26,393.35,382.26,404.56Zm25.1,6.24c-5.48,0-8.15-3.56-8.15-7.26,0-4.84,3.44-7.26,7.77-7.9l14.14-2.16v2.8C421.12,407.36,414.49,410.8,407.36,410.8Z" transform="translate(-3.5 -288.86)"/><path d="M471.7,385.58c0-7.26,4.33-13,11.72-13,8.15,0,11.59,5.47,11.59,12.48v36.56H512V382.14c0-13.76-7.14-24.84-22.68-24.84-6.75,0-14.27,2.93-18.09,9.43V359H454.76v62.68H471.7Z" transform="translate(-3.5 -288.86)"/><path d="M550.05,340.23H534.76V349c0,5.6-3.06,9.93-9.68,9.93h-3.19v15h11.34v29.17c0,12.1,7.64,19.36,19.87,19.36a25.37,25.37,0,0,0,9.56-1.52V407a24.26,24.26,0,0,1-5.22.51c-4.85,0-7.39-1.78-7.39-7.26V374h12.61V359H550.05Z" transform="translate(-3.5 -288.86)"/><path d="M604.58,408.13c-8.28,0-15.92-6.12-15.92-17.84s7.64-17.83,15.92-17.83,15.93,6,15.93,17.83S612.86,408.13,604.58,408.13Zm0-51.09c-18.72,0-32.87,13.89-32.87,33.25s14.15,33.25,32.87,33.25,32.87-14,32.87-33.25S623.31,357,604.58,357Z" transform="translate(-3.5 -288.86)"/><path d="M667.77,421.63V384.94c0-6.88,4.33-12.35,11.72-12.35,7.64,0,11.08,5.09,11.08,11.84v37.2h16.82V384.94c0-6.75,4.33-12.35,11.59-12.35,7.77,0,11.08,5.09,11.08,11.84v37.2H746.5V381c0-16.81-11.09-23.82-22.68-23.82-8.28,0-14.9,2.8-19.87,10.45-3.19-6.75-10.06-10.45-18.6-10.45-6.88,0-14.9,3.31-18.34,9.43V359H650.82v62.68Z" transform="translate(-3.5 -288.86)"/><circle class="cls-1" cx="86.14" cy="86.14" r="86.14"/><path class="cls-2" d="M151.3,376.05H136.12a56.23,56.23,0,0,0-112.45-1.14c-.63,31.43,29,58.74,60.52,58.74h4c27.82,0,65.11-21.7,70.94-48.15A7.89,7.89,0,0,0,151.3,376.05Zm-94,1.38a7.55,7.55,0,0,1-15.1,0V365.26a7.55,7.55,0,0,1,15.1,0Zm26.22,0a7.55,7.55,0,0,1-15.1,0V365.26a7.55,7.55,0,0,1,15.1,0Z" transform="translate(-3.5 -288.86)"/></svg>