<svg width="268" height="90" viewBox="0 0 268 90" fill="none" xmlns="http://www.w3.org/2000/svg">
<g clip-path="url(#clip0_1721_1509)">
<path d="M121.984 42.9383C121.701 42.5401 121.388 42.1965 121.027 41.9077C120.666 41.6188 120.289 41.3847 119.889 41.1972C119.489 41.0099 119.089 40.8694 118.689 40.7834C118.289 40.6976 117.904 40.6429 117.544 40.6352H117.52H109.833C109.197 40.6352 108.703 40.4477 108.35 40.0808C107.997 39.7061 107.816 39.2064 107.816 38.5663C107.816 37.9339 107.997 37.4263 108.35 37.0438C108.703 36.6613 109.197 36.4661 109.833 36.4661H121.207V33.1401H109.833C109.291 33.1401 108.711 33.2339 108.083 33.4291C107.456 33.6243 106.875 33.9287 106.342 34.3659C105.808 34.7953 105.361 35.3574 105.008 36.0445C104.655 36.7315 104.475 37.5747 104.475 38.574C104.475 39.5733 104.655 40.4166 105.008 41.1035C105.361 41.7906 105.808 42.3527 106.342 42.7821C106.875 43.2116 107.456 43.516 108.083 43.7112C108.711 43.9063 109.291 44 109.833 44H117.52C117.826 44 118.108 44.0547 118.36 44.1562C118.611 44.2577 118.83 44.4061 119.003 44.5934C119.175 44.7807 119.317 44.9993 119.411 45.2571C119.505 45.5146 119.552 45.7958 119.552 46.1002C119.552 46.7326 119.371 47.2323 119.018 47.607C118.665 47.9818 118.163 48.1691 117.52 48.1691H104.624V51.4949H117.52C117.881 51.4949 118.265 51.456 118.673 51.3701C119.081 51.2842 119.481 51.1515 119.874 50.9719C120.266 50.7923 120.65 50.566 121.019 50.2849C121.388 50.0039 121.709 49.6603 121.984 49.2621C122.258 48.8639 122.478 48.3956 122.643 47.8724C122.807 47.3494 122.894 46.756 122.894 46.1002C122.894 45.4444 122.815 44.8588 122.65 44.3357C122.486 43.8048 122.266 43.3442 121.984 42.9383Z" fill="black"/>
<path d="M142.834 35.0523C142.152 34.3731 141.336 33.8422 140.395 33.4597C139.453 33.077 138.434 32.8818 137.327 32.8818H132.801C131.695 32.8818 130.667 33.077 129.726 33.4597C128.785 33.8422 127.969 34.3731 127.286 35.0523C126.604 35.7315 126.063 36.5435 125.67 37.4803C125.278 38.4172 125.082 39.4478 125.082 40.5564V44.0618C125.082 45.1782 125.278 46.2088 125.67 47.1456C126.063 48.0826 126.596 48.8946 127.286 49.5738C127.969 50.253 128.785 50.7839 129.726 51.1664C130.667 51.5489 131.695 51.7364 132.801 51.7364H137.327C138.434 51.7364 139.453 51.5489 140.395 51.1664C141.336 50.7839 142.144 50.253 142.834 49.5738C143.517 48.8946 144.058 48.0826 144.443 47.1456C144.827 46.2088 145.023 45.1782 145.023 44.0618V40.5564C145.023 39.4478 144.827 38.4251 144.443 37.4803C144.058 36.5356 143.517 35.7315 142.834 35.0523ZM141.673 44.0697C141.673 44.7255 141.571 45.3187 141.36 45.8575C141.148 46.3883 140.85 46.8491 140.465 47.2237C140.081 47.6063 139.618 47.8952 139.085 48.106C138.551 48.3167 137.955 48.4183 137.304 48.4183H132.801C132.15 48.4183 131.554 48.3167 131.02 48.106C130.487 47.8952 130.024 47.6063 129.64 47.2237C129.255 46.8412 128.957 46.3883 128.745 45.8575C128.534 45.3266 128.432 44.7332 128.432 44.0697V40.5642C128.432 39.9084 128.534 39.315 128.745 38.7763C128.957 38.2455 129.255 37.7848 129.64 37.41C130.024 37.0275 130.487 36.7387 131.02 36.5278C131.554 36.317 132.15 36.2155 132.801 36.2155H137.327C137.971 36.2155 138.559 36.317 139.092 36.5278C139.626 36.7387 140.089 37.0275 140.465 37.41C140.85 37.7927 141.14 38.2455 141.352 38.7763C141.564 39.3072 141.665 39.9006 141.665 40.5642V44.0697H141.673Z" fill="black"/>
<path d="M151.659 33.1416H148.317V49.8102C148.317 50.0522 148.357 50.2708 148.443 50.4737C148.529 50.6767 148.647 50.8563 148.796 51.0047C148.945 51.1529 149.125 51.2701 149.329 51.3559C149.533 51.4419 149.761 51.4809 149.996 51.4809H165.246V48.155H151.659V33.1416Z" fill="black"/>
<path d="M168.721 33.266C168.517 33.3519 168.337 33.469 168.188 33.6252C168.039 33.7813 167.921 33.9609 167.835 34.1639C167.748 34.3668 167.709 34.5854 167.709 34.8197V51.4882H171.051V43.9932H184.442V40.6438H171.051V36.4749H184.449V33.1489H169.396C169.152 33.1412 168.925 33.1802 168.721 33.266Z" fill="black"/>
<path d="M190.49 33.1416H187.148V49.8102C187.148 50.0522 187.187 50.2708 187.273 50.4737C187.36 50.6767 187.478 50.8563 187.627 51.0047C187.776 51.1529 187.956 51.2701 188.16 51.3559C188.363 51.4419 188.592 51.4809 188.828 51.4809H204.076V48.155H190.49V33.1416Z" fill="black"/>
<path d="M224.127 33.6258C223.971 33.4696 223.791 33.3525 223.586 33.2665C223.382 33.1807 223.163 33.1416 222.928 33.1416H215.396C214.071 33.1416 212.84 33.3681 211.717 33.821C210.596 34.2737 209.624 34.9061 208.799 35.7181C207.976 36.53 207.333 37.498 206.87 38.6223C206.407 39.7466 206.179 40.9801 206.179 42.3229V51.4964H209.521V46.9839H221.273V51.4887H224.614V34.8201C224.614 34.5938 224.574 34.3752 224.489 34.1644C224.403 33.9615 224.285 33.7818 224.127 33.6258ZM221.273 43.6579H209.529V42.3152C209.529 41.3861 209.662 40.5975 209.922 39.9417C210.18 39.2859 210.518 38.7472 210.917 38.31C211.317 37.8728 211.764 37.5371 212.242 37.2873C212.722 37.0374 213.176 36.8579 213.616 36.7409C214.048 36.6236 214.431 36.5457 214.762 36.5144C215.091 36.4831 215.31 36.4676 215.412 36.4676H221.288V43.6579H221.273Z" fill="black"/>
<path d="M242.054 45.3444C242.524 45.2507 242.987 45.1023 243.442 44.8916C243.897 44.6807 244.337 44.4153 244.76 44.0951C245.184 43.7673 245.553 43.3848 245.874 42.9242C246.196 42.4713 246.454 41.9404 246.643 41.347C246.831 40.7538 246.926 40.0745 246.926 39.3094V37.1858C246.926 36.7798 246.855 36.3348 246.713 35.8663C246.572 35.398 246.337 34.9608 246.016 34.5547C245.694 34.1488 245.278 33.8131 244.76 33.5477C244.243 33.2822 243.614 33.1416 242.869 33.1416H230.185C229.942 33.1416 229.722 33.1807 229.518 33.2665C229.314 33.3525 229.133 33.4696 228.984 33.6258C228.835 33.7818 228.717 33.9615 228.632 34.1644C228.546 34.3674 228.506 34.586 228.506 34.8202V51.4887H231.849V45.4849H235.59L242.555 51.4887H247.725L240.744 45.4849C241.151 45.4849 241.591 45.438 242.054 45.3444ZM231.84 42.159V36.4676H242.869C242.94 36.4676 243.011 36.4753 243.097 36.4831C243.176 36.491 243.254 36.5223 243.325 36.5691C243.396 36.6159 243.458 36.6862 243.505 36.7877C243.552 36.8891 243.576 37.0297 243.576 37.217V39.3172C243.576 39.7544 243.505 40.1369 243.371 40.4726C243.238 40.8083 243.042 41.0973 242.784 41.3393C242.533 41.5813 242.234 41.7687 241.881 41.9092C241.536 42.0496 241.151 42.1356 240.728 42.1746H231.84V42.159Z" fill="black"/>
<path d="M266.937 36.4676V33.1416H251.883C251.64 33.1416 251.42 33.1807 251.217 33.2665C251.013 33.3525 250.832 33.4696 250.683 33.6258C250.534 33.7818 250.417 33.9615 250.33 34.1644C250.243 34.3674 250.205 34.586 250.205 34.8202V46.8199C250.205 47.6787 250.361 48.4048 250.675 48.9982C250.989 49.5916 251.382 50.0756 251.845 50.4425C252.314 50.8172 252.817 51.0826 253.366 51.2388C253.915 51.4028 254.418 51.4809 254.881 51.4809H266.937V48.155H254.903C254.456 48.155 254.12 48.0378 253.891 47.8115C253.664 47.585 253.546 47.2494 253.546 46.8122V43.9859H266.835V40.6367H253.546V36.4676H266.937Z" fill="black"/>
<path d="M46.1072 86.2387C47.0523 86.2387 47.8185 86.9964 47.8185 87.9312C47.8185 88.8659 47.0523 89.6237 46.1072 89.6237C45.1622 89.6237 44.396 88.8659 44.396 87.9312C44.396 86.9964 45.1622 86.2387 46.1072 86.2387ZM44.2482 5.39055C45.0845 5.45959 45.7599 6.09327 45.873 6.9148L47.9083 21.7031C48.592 26.589 54.4846 28.7059 58.1221 25.3857L78.5144 6.82492C79.0063 6.3772 79.7725 6.40823 80.2256 6.89423C80.6414 7.34012 80.6539 8.02278 80.2547 8.48323L62.4722 28.9957C59.1985 32.7652 61.614 38.6514 66.6044 39.0717L82.2945 40.5842C83.076 40.6595 83.6476 41.3464 83.5714 42.1185C83.5085 42.7553 83.018 43.2696 82.3784 43.3694L65.8915 45.9437C61.1046 46.5962 58.9369 52.2648 62.0505 55.9473L67.8464 62.7803C68.3134 63.3308 68.2402 64.1511 67.683 64.6124C67.2109 65.0033 66.5275 65.0185 66.0382 64.6489L58.8932 59.2529C55.0374 56.3533 49.4797 58.8178 49.0722 63.6167L47.4977 82.3323C47.4326 83.1054 46.7456 83.68 45.9632 83.6157C45.2991 83.5612 44.7625 83.0582 44.6724 82.4059L42.1757 64.3272C41.5065 59.4414 35.6139 57.3245 31.962 60.6447L10.2684 80.3978C9.81938 80.8067 9.11987 80.7785 8.70603 80.3348C8.32635 79.9278 8.3148 79.3045 8.67916 78.884L27.6118 57.0347C30.8855 53.2651 28.4848 47.3789 23.4941 46.9587L7.8005 45.4459C7.01907 45.3705 6.44741 44.6836 6.52365 43.9115C6.58653 43.2748 7.07695 42.7605 7.71652 42.6606L24.1926 40.0867C28.9795 39.4341 31.1619 33.7656 28.0483 30.083L24.1028 25.4317C23.5238 24.7491 23.6145 23.732 24.3054 23.1599C24.891 22.675 25.7387 22.6564 26.3456 23.1151L31.1909 26.7775C35.0466 29.6771 40.6043 27.2126 41.0119 22.4137L42.3152 7.00581C42.3975 6.03237 43.263 5.3092 44.2482 5.39055ZM2.51101 42.182C3.45608 42.182 4.22221 42.9397 4.22221 43.8745C4.22221 44.8092 3.45608 45.5669 2.51101 45.5669C1.56594 45.5669 0.799805 44.8092 0.799805 43.8745C0.799805 42.9397 1.56594 42.182 2.51101 42.182ZM88.3345 40.4634C89.2796 40.4634 90.0457 41.2212 90.0457 42.1559C90.0457 43.0907 89.2796 43.8484 88.3345 43.8484C87.3894 43.8484 86.6233 43.0907 86.6233 42.1559C86.6233 41.2212 87.3894 40.4634 88.3345 40.4634ZM44.0012 0C44.9462 0 45.7124 0.757752 45.7124 1.69249C45.7124 2.62722 44.9462 3.38497 44.0012 3.38497C43.0561 3.38497 42.2899 2.62722 42.2899 1.69249C42.2899 0.757752 43.0561 0 44.0012 0Z" fill="url(#paint0_linear_1721_1509)"/>
<path d="M45.0276 59.0018C53.9549 59.0018 61.1919 51.844 61.1919 43.0143C61.1919 34.1847 53.9549 27.0269 45.0276 27.0269C36.1003 27.0269 28.8633 34.1847 28.8633 43.0143C28.8633 51.844 36.1003 59.0018 45.0276 59.0018Z" fill="url(#paint1_radial_1721_1509)"/>
</g>
<defs>
<linearGradient id="paint0_linear_1721_1509" x1="12.4608" y1="14.256" x2="63.639" y2="60.5867" gradientUnits="userSpaceOnUse">
<stop stop-color="#FFC10B"/>
<stop offset="1" stop-color="#FB3F2E"/>
</linearGradient>
<radialGradient id="paint1_radial_1721_1509" cx="0" cy="0" r="1" gradientUnits="userSpaceOnUse" gradientTransform="translate(41.3361 37.112) rotate(67.5196) scale(23.5008 23.7292)">
<stop stop-color="#FFC10B"/>
<stop offset="1" stop-color="#FB3F2E"/>
</radialGradient>
<clipPath id="clip0_1721_1509">
<rect width="266.4" height="90" fill="black" transform="translate(0.799805)"/>
</clipPath>
</defs>
</svg>
