<?xml version="1.0" standalone="no"?>
<!DOCTYPE svg PUBLIC "-//W3C//DTD SVG 20010904//EN"
 "http://www.w3.org/TR/2001/REC-SVG-20010904/DTD/svg10.dtd">
<svg version="1.0" xmlns="http://www.w3.org/2000/svg"
 width="700.000000pt" height="700.000000pt" viewBox="0 0 700.000000 700.000000"
 preserveAspectRatio="xMidYMid meet">
<metadata>
Created by potrace 1.14, written by Peter Selinger 2001-2017
</metadata>
<g transform="translate(0.000000,700.000000) scale(0.100000,-0.100000)"
fill="#000000" stroke="none">
<path d="M403 6985 c-186 -50 -340 -206 -388 -392 -13 -50 -15 -437 -15 -3093
0 -3340 -5 -3081 61 -3212 41 -82 145 -186 227 -227 131 -66 -128 -61 3212
-61 3340 0 3081 -5 3212 61 82 41 186 145 227 227 66 131 61 -128 61 3212 0
3340 5 3081 -61 3212 -43 85 -134 178 -218 222 -137 72 144 66 -3226 65 -2580
0 -3048 -2 -3092 -14z m3665 -894 c255 -39 476 -107 697 -215 412 -202 728
-513 928 -913 69 -138 134 -310 121 -323 -20 -20 -1117 -531 -1124 -523 -4 4
-21 53 -38 108 -65 209 -167 380 -311 518 -91 88 -186 151 -288 191 -318 124
-723 81 -1006 -107 -97 -65 -239 -208 -301 -304 -129 -201 -209 -435 -247
-723 -16 -122 -16 -467 0 -590 69 -539 292 -910 656 -1090 288 -143 657 -155
931 -30 260 117 465 369 566 695 17 55 34 103 38 108 6 7 1124 -485 1144 -503
13 -13 -45 -174 -115 -319 -106 -220 -232 -394 -416 -571 -334 -323 -739 -515
-1253 -595 -145 -23 -485 -31 -646 -16 -595 56 -1088 274 -1482 655 -208 201
-344 390 -477 661 -187 379 -271 740 -282 1210 -6 257 4 427 38 625 189 1116
968 1898 2044 2050 197 28 204 28 460 25 167 -3 267 -9 363 -24z"/>
</g>
</svg>
